<?xml version="1.0" encoding="UTF-8" standalone="no"?>
<!-- Created with Inkscape (http://www.inkscape.org/) -->

<svg
   xmlns:dc="http://purl.org/dc/elements/1.1/"
   xmlns:cc="http://creativecommons.org/ns#"
   xmlns:rdf="http://www.w3.org/1999/02/22-rdf-syntax-ns#"
   xmlns:svg="http://www.w3.org/2000/svg"
   xmlns="http://www.w3.org/2000/svg"
   xmlns:sodipodi="http://sodipodi.sourceforge.net/DTD/sodipodi-0.dtd"
   xmlns:inkscape="http://www.inkscape.org/namespaces/inkscape"
   width="210mm"
   height="297mm"
   viewBox="0 0 210 297"
   version="1.1"
   id="svg8"
   inkscape:version="0.92.2 5c3e80d, 2017-08-06"
   sodipodi:docname="jagged.svg">
  <defs
     id="defs2" />
  <sodipodi:namedview
     id="base"
     pagecolor="#ffffff"
     bordercolor="#666666"
     borderopacity="1.0"
     inkscape:pageopacity="0"
     inkscape:pageshadow="2"
     inkscape:zoom="0.35"
     inkscape:cx="400"
     inkscape:cy="560"
     inkscape:document-units="mm"
     inkscape:current-layer="layer1"
     showgrid="false"
     inkscape:window-width="1280"
     inkscape:window-height="752"
     inkscape:window-x="0"
     inkscape:window-y="0"
     inkscape:window-maximized="1" />
  <metadata
     id="metadata5">
    <rdf:RDF>
      <cc:Work
         rdf:about="">
        <dc:format>image/svg+xml</dc:format>
        <dc:type
           rdf:resource="http://purl.org/dc/dcmitype/StillImage" />
        <dc:title></dc:title>
      </cc:Work>
    </rdf:RDF>
  </metadata>
  <g
     inkscape:label="Layer 1"
     inkscape:groupmode="layer"
     id="layer1">
    <path
       style="fill:none;stroke:#000000;stroke-width:0.26458332px;stroke-linecap:butt;stroke-linejoin:miter;stroke-opacity:1"
       d="m 9.8273808,1.422619 v 36.285715 l 11.3392852,20.410712 -12.85119,27.214288 13.607143,19.654756 -12.0952382,30.2381 28.7261912,9.07143 8.315476,19.65476 38.553569,-14.3631 11.339288,18.14286 49.136905,-13.60714 32.50595,22.67857 27.97024,-21.92262 -1.51191,61.23214 -29.48214,19.65476 L 127,233.5 108.85714,244.08333 64.255951,239.54762 43.089284,257.69047 8.315476,250.8869 V 297"
       id="path16"
       inkscape:connector-curvature="0" />
    <path
       style="fill:none;stroke:#000000;stroke-width:0.26458332px;stroke-linecap:butt;stroke-linejoin:miter;stroke-opacity:1"
       d="M 24.946428,2.1785714 V 39.220237 L 5.7682598,72.437799 35.790229,102.45977 8.3890823,149.91995 65.219672,134.69224 l 12.863184,48.00606 52.094204,-30.0766 16.17653,28.01857 35.70881,-35.70882 11.88439,44.35314 8.71066,32.50861 h -38.61579 v 26.82584 l -63.971,-17.14097 -16.460015,28.50957 -51.17815,-13.71314 -8.79905,32.8385 -20.1045741,11.60738 1.8263383,6.81598"
       id="path18"
       inkscape:connector-curvature="0" />
  </g>
</svg>
